<svg width="20" height="23" viewBox="0 0 20 23" fill="none" xmlns="http://www.w3.org/2000/svg">
<path d="M1.99997 20.3333H6.46153V12.4103H13.5384V20.3333H18V8.33332L9.99997 2.30769L1.99997 8.33332V20.3333ZM1.99997 22.3333C1.45468 22.3333 0.985033 22.1363 0.591033 21.7423C0.197011 21.3483 0 20.8786 0 20.3333V8.33332C0 8.01768 0.070611 7.71865 0.211833 7.43622C0.353033 7.1538 0.548233 6.92122 0.797433 6.73849L8.79743 0.712856C8.98203 0.577812 9.1744 0.478668 9.37453 0.415424C9.57467 0.352179 9.78314 0.320557 9.99997 0.320557C10.2168 0.320557 10.4253 0.352179 10.6254 0.415424C10.8255 0.478668 11.0179 0.577812 11.2025 0.712856L19.2025 6.73849C19.4517 6.92122 19.6469 7.1538 19.7881 7.43622C19.9293 7.71865 19.9999 8.01768 19.9999 8.33332V20.3333C19.9999 20.8786 19.8029 21.3483 19.4089 21.7423C19.0149 22.1363 18.5453 22.3333 18 22.3333H11.5384V14.4102H8.4615V22.3333H1.99997Z" fill="#455274"/>
</svg>
