<svg width="92" height="24" viewBox="0 0 92 24" fill="none" xmlns="http://www.w3.org/2000/svg">
<path fill-rule="evenodd" clip-rule="evenodd" d="M3.53213 2.95133C3.75718 2.72628 4.06241 2.59985 4.38067 2.59985H12.2473V4.99985H5.5788C5.57595 5.93914 5.5703 6.81482 5.56503 7.63221C5.54829 10.227 5.53534 12.2344 5.62784 13.8239C5.76432 16.1691 6.1248 17.1684 6.66012 17.6919C7.19617 18.2161 8.18688 18.5381 10.4701 18.6322C11.8013 18.687 13.4034 18.6656 15.3931 18.639C16.446 18.6249 17.6075 18.6094 18.8948 18.603L18.8949 11.0999L21.2949 11.0999L21.2948 19.7999C21.2948 20.4626 20.7575 20.9999 20.0948 20.9999C18.42 20.9999 16.9009 21.0198 15.5336 21.0377C13.472 21.0647 11.7556 21.0872 10.3713 21.0301C8.10399 20.9367 6.23568 20.6336 4.98214 19.4078C3.72788 18.1813 3.36821 16.3056 3.23189 13.9633C3.13468 12.2929 3.14838 10.1635 3.1654 7.5154C3.17274 6.37473 3.18069 5.13782 3.18067 3.79987C3.18066 3.48161 3.30709 3.17638 3.53213 2.95133Z" fill="white"/>
<path d="M13.7139 11.1001C13.7139 10.2717 14.3534 9.6001 15.1424 9.6001H15.7139C16.5029 9.6001 17.1424 10.2717 17.1424 11.1001C17.1424 11.9285 16.5029 12.6001 15.7139 12.6001H15.1424C14.3534 12.6001 13.7139 11.9285 13.7139 11.1001Z" fill="white"/>
<path d="M39.58 20.12C38.4467 20.12 37.4333 19.8867 36.54 19.42C35.66 18.94 34.9667 18.2867 34.46 17.46C33.9533 16.62 33.7 15.6733 33.7 14.62V5.98H36.72V14.44C36.72 15 36.8467 15.5067 37.1 15.96C37.3533 16.4 37.6933 16.7533 38.12 17.02C38.56 17.2867 39.0467 17.42 39.58 17.42C40.1267 17.42 40.62 17.2867 41.06 17.02C41.5133 16.7533 41.8667 16.4 42.12 15.96C42.3867 15.5067 42.52 15 42.52 14.44V5.98H45.44V14.62C45.44 15.6733 45.1867 16.62 44.68 17.46C44.1733 18.2867 43.4733 18.94 42.58 19.42C41.7 19.8867 40.7 20.12 39.58 20.12ZM53.6367 20.2C52.5567 20.2 51.5901 19.9667 50.7367 19.5C49.8967 19.02 49.2301 18.3667 48.7367 17.54C48.2567 16.7133 48.0167 15.7667 48.0167 14.7C48.0167 13.6333 48.2567 12.6933 48.7367 11.88C49.2301 11.0533 49.8967 10.4 50.7367 9.92C51.5901 9.44 52.5567 9.2 53.6367 9.2C54.7034 9.2 55.6567 9.44 56.4967 9.92C57.3501 10.4 58.0167 11.0533 58.4967 11.88C58.9767 12.6933 59.2167 13.6333 59.2167 14.7C59.2167 15.7667 58.9767 16.7133 58.4967 17.54C58.0167 18.3667 57.3501 19.02 56.4967 19.5C55.6567 19.9667 54.7034 20.2 53.6367 20.2ZM53.6367 17.72C54.1567 17.72 54.6234 17.5933 55.0367 17.34C55.4501 17.0733 55.7701 16.7133 55.9967 16.26C56.2367 15.7933 56.3567 15.2733 56.3567 14.7C56.3567 14.1133 56.2367 13.5933 55.9967 13.14C55.7701 12.6733 55.4501 12.3133 55.0367 12.06C54.6234 11.7933 54.1567 11.66 53.6367 11.66C53.1034 11.66 52.6301 11.7933 52.2167 12.06C51.8034 12.3267 51.4767 12.6867 51.2367 13.14C50.9967 13.5933 50.8834 14.1133 50.8967 14.7C50.8834 15.2733 50.9967 15.7933 51.2367 16.26C51.4767 16.7133 51.8034 17.0733 52.2167 17.34C52.6301 17.5933 53.1034 17.72 53.6367 17.72ZM52.1167 8.12L51.2567 6.8L54.5967 4.08L56.0167 6.02L52.1167 8.12ZM61.5334 20V5.2H64.3734V20H61.5334ZM72.2403 20.2C71.0936 20.2 70.0936 19.9667 69.2403 19.5C68.387 19.0333 67.7203 18.3933 67.2403 17.58C66.7603 16.7667 66.5203 15.8333 66.5203 14.78C66.5203 13.9667 66.6536 13.22 66.9203 12.54C67.187 11.86 67.5603 11.2733 68.0403 10.78C68.5203 10.2733 69.087 9.88667 69.7403 9.62C70.407 9.34 71.127 9.2 71.9003 9.2C72.6203 9.2 73.287 9.33333 73.9003 9.6C74.5136 9.85333 75.0403 10.22 75.4803 10.7C75.9336 11.1667 76.2803 11.72 76.5203 12.36C76.7603 13 76.867 13.7 76.8403 14.46L76.8203 15.34H68.3203L67.8603 13.6H74.4803L74.1603 13.96V13.52C74.1336 13.16 74.0136 12.8333 73.8003 12.54C73.6003 12.2467 73.3403 12.02 73.0203 11.86C72.7003 11.7 72.3403 11.62 71.9403 11.62C71.3536 11.62 70.8536 11.7333 70.4403 11.96C70.0403 12.1867 69.7336 12.52 69.5203 12.96C69.307 13.4 69.2003 13.9333 69.2003 14.56C69.2003 15.2 69.3336 15.7533 69.6003 16.22C69.8803 16.6867 70.267 17.0533 70.7603 17.32C71.267 17.5733 71.8603 17.7 72.5403 17.7C73.007 17.7 73.4336 17.6267 73.8203 17.48C74.207 17.3333 74.6203 17.08 75.0603 16.72L76.4203 18.62C76.0336 18.9667 75.607 19.26 75.1403 19.5C74.6736 19.7267 74.1936 19.9 73.7003 20.02C73.207 20.14 72.7203 20.2 72.2403 20.2ZM80.1191 20V6.74H82.9591V20H80.1191ZM78.1391 11.96V9.42H85.1191V11.96H78.1391ZM87.3702 20V9.42H90.2102V20H87.3702ZM88.7702 7.24C88.2235 7.24 87.7968 7.10667 87.4902 6.84C87.1835 6.57333 87.0302 6.19333 87.0302 5.7C87.0302 5.24667 87.1835 4.88 87.4902 4.6C87.8102 4.30667 88.2368 4.16 88.7702 4.16C89.3168 4.16 89.7435 4.3 90.0502 4.58C90.3568 4.84667 90.5102 5.22 90.5102 5.7C90.5102 6.16667 90.3502 6.54 90.0302 6.82C89.7235 7.1 89.3035 7.24 88.7702 7.24Z" fill="white"/>
</svg>
