<svg width="26" height="27" viewBox="0 0 26 27" fill="none" xmlns="http://www.w3.org/2000/svg">
<path d="M21.3975 19.5103V21.8334C21.3975 21.994 21.4556 22.1325 21.5718 22.2488C21.6881 22.365 21.8265 22.4231 21.9872 22.4231C22.1479 22.4231 22.2864 22.365 22.4026 22.2488C22.5188 22.1325 22.577 21.994 22.577 21.8334V18.1026C22.577 17.9419 22.5167 17.8013 22.3962 17.6808C22.2757 17.5603 22.1351 17.5 21.9744 17.5H18.2436C18.083 17.5 17.9445 17.5582 17.8283 17.6744C17.712 17.7907 17.6539 17.9291 17.6539 18.0898C17.6539 18.2505 17.712 18.3889 17.8283 18.5052C17.9445 18.6214 18.083 18.6796 18.2436 18.6796H20.5667L17.4283 21.818C17.312 21.9342 17.2518 22.0706 17.2475 22.2269C17.2432 22.3834 17.3035 22.524 17.4283 22.6488C17.5445 22.765 17.683 22.8231 17.8436 22.8231C18.0043 22.8231 18.1428 22.765 18.2591 22.6488L21.3975 19.5103ZM3.07701 23.3334C2.41206 23.3334 1.84411 23.0979 1.37318 22.6269C0.902226 22.156 0.666748 21.588 0.666748 20.9231V3.07702C0.666748 2.41206 0.902226 1.84411 1.37318 1.37318C1.84411 0.902226 2.41206 0.666748 3.07701 0.666748H20.9231C21.588 0.666748 22.156 0.902226 22.6269 1.37318C23.0979 1.84411 23.3334 2.41206 23.3334 3.07702V11.5103C23.0051 11.3701 22.6765 11.2513 22.3475 11.1539C22.0184 11.0565 21.6804 10.9787 21.3334 10.9206V3.07702C21.3334 2.97444 21.2906 2.8804 21.2052 2.79492C21.1197 2.70945 21.0257 2.66672 20.9231 2.66672H3.07701C2.97444 2.66672 2.8804 2.70945 2.79491 2.79492C2.70945 2.8804 2.66671 2.97444 2.66671 3.07702V20.9231C2.66671 21.0257 2.70945 21.1197 2.79491 21.2052C2.8804 21.2906 2.97444 21.3334 3.07701 21.3334H10.8872C10.9368 21.7026 11.0103 22.0517 11.1077 22.3808C11.2052 22.7099 11.324 23.0274 11.4641 23.3334H3.07701ZM2.66671 20V21.3334V2.66672V10.9206V10.8206V20ZM5.66675 17.1795C5.66675 17.4633 5.76247 17.7009 5.95391 17.8923C6.14536 18.0838 6.38296 18.1795 6.66671 18.1795H11.0231C11.0813 17.8325 11.1676 17.4945 11.2821 17.1654C11.3966 16.8364 11.5214 16.5077 11.6565 16.1796H6.66671C6.38296 16.1796 6.14536 16.2753 5.95391 16.4667C5.76247 16.6582 5.66675 16.8958 5.66675 17.1795ZM5.66675 12C5.66675 12.2838 5.76247 12.5214 5.95391 12.7128C6.14536 12.9043 6.38296 13 6.66671 13H14.1206C14.695 12.5129 15.3078 12.1047 15.959 11.7757C16.6103 11.4466 17.3077 11.2129 18.0513 11.0744C17.9026 11.0385 17.7359 11.0172 17.5513 11.0103C17.3667 11.0035 17.2 11.0001 17.0513 11.0001H6.66671C6.38296 11.0001 6.14536 11.0958 5.95391 11.2872C5.76247 11.4787 5.66675 11.7163 5.66675 12ZM5.66675 6.82058C5.66675 7.10434 5.76247 7.34194 5.95391 7.53338C6.14536 7.72483 6.38296 7.82055 6.66671 7.82055H17.3334C17.6171 7.82055 17.8547 7.72483 18.0462 7.53338C18.2376 7.34194 18.3334 7.10434 18.3334 6.82058C18.3334 6.53683 18.2376 6.29923 18.0462 6.10778C17.8547 5.91632 17.6171 5.82058 17.3334 5.82058H6.66671C6.38296 5.82058 6.14536 5.91632 5.95391 6.10778C5.76247 6.29923 5.66675 6.53683 5.66675 6.82058ZM20 26.0769C18.3351 26.0769 16.9189 25.4932 15.7513 24.3257C14.5838 23.1581 14.0001 21.7419 14.0001 20.077C14.0001 18.412 14.5838 16.9958 15.7513 15.8283C16.9189 14.6608 18.3351 14.077 20 14.077C21.665 14.077 23.0812 14.6608 24.2487 15.8283C25.4163 16.9958 26 18.412 26 20.077C26 21.7419 25.4163 23.1581 24.2487 24.3257C23.0812 25.4932 21.665 26.0769 20 26.0769Z" fill="white"/>
</svg>
